<svg xmlns="http://www.w3.org/2000/svg" width="32" height="32" id="truck"><g transform="translate(40.493 -1564.862)"><path fill="#f8b84e" d="M-19.115 1585.862h-1.381v-8h11.003v8h-3.453"></path><path fill="#f05542" d="M-35.432 1582.362h-5.06v-12h20v12h-9.068"></path><path fill="#576d7e" d="M-35.054 1585.862h-5.425v-3.5H-20.5v3.5h-8.545"></path><path fill="#34485c" d="M-32.492 1582.862a4 4 0 0 0-3.87 3h7.739a4 4 0 0 0-3.87-3z"></path><circle cx="-32.493" cy="1586.862" r="3" fill="#2b4255"></circle><path style="line-height:normal;text-indent:0;text-align:start;text-decoration-line:none;text-decoration-style:solid;text-decoration-color:#000;text-transform:none;block-progression:tb;isolation:auto;mix-blend-mode:normal" fill="#f17f53" fill-rule="evenodd" d="M-40.479 1583.862v1h1.979a.5.5 0 1 0 0-1h-1.979z" font-family="sans-serif" font-weight="400"></path><circle cx="-32.493" cy="1586.862" r="1" fill="#e9eded"></circle><path fill="#4bbfeb" d="M-20.496 1571.862h5.73l5.266 6.02-11.004-.02z"></path><path fill="none" stroke="#2b4255" stroke-linecap="round" stroke-linejoin="round" d="M-18.493 1578.862h1.014"></path><path fill="none" stroke="#f17f53" stroke-linecap="round" stroke-linejoin="round" d="M-37.993 1571.87v8.992m3-8.993v8.993m3-8.993v8.993m3-8.993v8.993m3-8.993v8.993m3-8.993v8.993"></path><path style="line-height:normal;text-indent:0;text-align:start;text-decoration-line:none;text-decoration-style:solid;text-decoration-color:#000;text-transform:none;block-progression:tb;isolation:auto;mix-blend-mode:normal" fill="#f17f53" fill-rule="evenodd" d="M-9.493 1584.362v-1h-1.978a.5.5 0 1 0 0 1h1.978z" font-family="sans-serif" font-weight="400"></path><path style="line-height:normal;text-indent:0;text-align:start;text-decoration-line:none;text-decoration-style:solid;text-decoration-color:#000;text-transform:none;block-progression:tb;isolation:auto;mix-blend-mode:normal" fill="#f8b84e" d="M-19.994 1571.852h-.5l-.006 5.992a.5.5 0 0 0 .5.5l10.004.017a.5.5 0 0 0 .377-.828l-4.834-5.52a.5.5 0 0 0-.375-.172c-2.172 0-5.166.011-5.166.011zm.5.99h4.44l3.954 4.517-8.4-.014.006-4.503z" font-family="sans-serif" font-weight="400"></path><path style="line-height:normal;text-indent:0;text-align:start;text-decoration-line:none;text-decoration-style:solid;text-decoration-color:#000;text-transform:none;block-progression:tb;isolation:auto;mix-blend-mode:normal" fill="#f8b84e" fill-rule="evenodd" d="M-17 1572.361v6h1v-6h-1z" font-family="sans-serif" font-weight="400"></path><path fill="#34485c" d="M-15.993 1582.862a4 4 0 0 0-3.869 3h7.738a4 4 0 0 0-3.869-3z"></path><circle cx="-15.993" cy="1586.862" r="3" fill="#2b4255"></circle><circle cx="-15.993" cy="1586.862" r="1" fill="#e9eded"></circle></g></svg>